<?xml version="1.0" encoding="utf-8"?>
<!-- Generator: Adobe Illustrator 24.0.0, SVG Export Plug-In . SVG Version: 6.00 Build 0)  -->
<svg version="1.1" id="Layer_1" xmlns="http://www.w3.org/2000/svg" xmlns:xlink="http://www.w3.org/1999/xlink" x="0px" y="0px"
	 viewBox="0 0 62 28" style="enable-background:new 0 0 62 28;" xml:space="preserve">
<style type="text/css">
	.st0{clip-path:url(#SVGID_2_);}
	.st1{fill:#3B9FD2;}
	.st2{font-family:'ArialRoundedMTBold';}
	.st3{font-size:6.8992px;}
	.st4{clip-path:url(#SVGID_4_);fill:url(#SVGID_5_);}
</style>
<g>
	<g>
		<defs>
			<rect id="SVGID_1_" x="4.4" y="0" width="27.9" height="27.9"/>
		</defs>
		<clipPath id="SVGID_2_">
			<use xlink:href="#SVGID_1_"  style="overflow:visible;"/>
		</clipPath>
		<g class="st0">
			<text transform="matrix(1 0 0 1 12.9233 16.1982)"><tspan x="0" y="0" class="st1 st2 st3">n</tspan><tspan x="4.5" y="0" class="st1 st2 st3">f</tspan><tspan x="7.1" y="0" class="st1 st2 st3">c</tspan></text>
		</g>
		<g class="st0">
			<defs>
				<rect id="SVGID_3_" x="4.4" y="0" width="27.9" height="27.9"/>
			</defs>
			<clipPath id="SVGID_4_">
				<use xlink:href="#SVGID_3_"  style="overflow:visible;"/>
			</clipPath>
			
				<linearGradient id="SVGID_5_" gradientUnits="userSpaceOnUse" x1="-0.1415" y1="27.3798" x2="-0.1218" y2="27.3798" gradientTransform="matrix(1106.84 0 0 -1106.84 164.317 30319.1816)">
				<stop  offset="0" style="stop-color:#197FC4"/>
				<stop  offset="1" style="stop-color:#46BFE6"/>
			</linearGradient>
			<path class="st4" d="M29.2,14.2h0.3c0,6-4.9,10.9-10.9,10.9c-6,0-10.9-4.9-10.9-10.9c0-6,4.9-10.9,10.9-10.9
				c6,0,10.9,4.9,10.9,10.9H29.2h-0.3c0-2.9-1.2-5.4-3-7.3c-1.9-1.9-4.4-3-7.3-3c-2.9,0-5.4,1.2-7.3,3c-1.9,1.9-3,4.4-3,7.3
				c0,2.9,1.2,5.4,3,7.3c1.9,1.9,4.4,3,7.3,3c2.9,0,5.4-1.2,7.3-3c1.9-1.9,3-4.4,3-7.3H29.2z"/>
		</g>
	</g>
</g>
</svg>
